Coordinates
version=1
nRows=4
nColumns=63
inDegrees=yes

Units are S.I. units (second, meters, Newtons, ...)
If the header above contains a line with 'inDegrees', this indicates whether rotational values are in degrees (yes) or radians (no).

endheader
time	pelvis_tilt	pelvis_list	pelvis_rotation	pelvis_tx	pelvis_ty	pelvis_tz	hip_flexion_r	hip_adduction_r	hip_rotation_r	knee_angle_r	knee_angle_r_beta	ankle_angle_r	subtalar_angle_r	mtp_angle_r	hip_flexion_l	hip_adduction_l	hip_rotation_l	knee_angle_l	knee_angle_l_beta	ankle_angle_l	subtalar_angle_l	mtp_angle_l	L5_S1_Flex_Ext	L5_S1_Lat_Bending	L5_S1_axial_rotation	L4_L5_Flex_Ext	L4_L5_Lat_Bending	L4_L5_axial_rotation	L3_L4_Flex_Ext	L3_L4_Lat_Bending	L3_L4_axial_rotation	L2_L3_Flex_Ext	L2_L3_Lat_Bending	L2_L3_axial_rotation	L1_L2_Flex_Ext	L1_L2_Lat_Bending	L1_L2_axial_rotation	L1_T12_Flex_Ext	L1_T12_Lat_Bending	L1_T12_axial_rotation	Abs_r3	Abs_r2	Abs_r1	Abs_t1	Abs_t2	neck_flexion	neck_bending	neck_rotation	arm_flex_r	arm_add_r	arm_rot_r	elbow_flex_r	pro_sup_r	wrist_flex_r	wrist_dev_r	arm_flex_l	arm_add_l	arm_rot_l	elbow_flex_l	pro_sup_l	wrist_flex_l	wrist_dev_l
      3.01923077	     -1.62670138	      5.80055362	     82.67888180	      0.00570173	      0.93665622	      0.57385976	     -7.43303473	     -1.33540210	      6.05038024	      5.08117389	      0.08868321	     28.99935878	      2.29048306	      0.00000000	     -9.47084984	      1.34821600	     -1.18502236	      1.42869395	      0.02493541	     26.23392402	     -8.19596624	      0.00000000	     -0.84690629	     -0.19227412	      3.08634686	     -1.57278967	     -0.25572457	      3.27924353	     -1.39138234	     -0.46749528	      3.27924353	     -0.96792920	     -0.46749528	      2.70055350	     -0.78643718	     -0.39208538	      2.50765682	     -0.48392225	     -0.29783260	      2.31476014	     -6.04936692	     -2.17504325	     17.16533531	      0.00000000	      0.00000000	    -10.71030901	      1.62138850	     -3.43527366	    126.75487526	    -30.71421435	     39.27469945	    116.09881619	     40.73970905	    -46.14927650	     33.72266885	    115.32720653	    -18.53903266	     36.46776310	    101.66532129	     85.00897120	      1.05350273	     34.29240612
      3.03846154	     -2.27682727	      5.69444934	     83.21504436	      0.00717878	      0.93705609	      0.57307678	     -7.15853118	     -2.00914536	      1.22166081	      5.39598681	      0.09417774	     30.44471252	      8.28642089	      0.00000000	     -9.26897968	      1.76978767	     -2.44710860	      1.53845853	      0.02685117	     26.62067120	     -5.31523504	      0.00000000	     -0.79446223	     -0.27116877	      2.56738652	     -1.47539581	     -0.36065447	      2.72784818	     -1.30522200	     -0.65931975	      2.72784818	     -0.90799088	     -0.65931975	      2.24646321	     -0.73773763	     -0.55296736	      2.08600155	     -0.45395572	     -0.42004043	      1.92553989	     -5.67476427	     -3.06751538	     14.27903363	      0.00000000	      0.00000000	    -10.55554367	      1.34400363	      0.14692090	    121.07970852	    -25.45025616	     32.92135077	    114.44087840	     44.01846420	    -40.82262984	     33.81686708	    115.61585782	    -20.58924017	     35.97976046	    102.48890315	     83.33739869	      5.12043225	     34.29914984
      3.05769231	     -2.54220689	      5.62640936	     83.10272267	      0.00861336	      0.93729525	      0.57199083	     -7.04814577	     -2.25156486	      0.72370447	      5.47364645	      0.09553315	     30.89667401	      9.19566040	      0.00000000	     -9.28576213	      1.98323099	     -2.80561160	      1.47874614	      0.02580899	     26.45820487	     -4.70064752	      0.00000000	     -0.74465737	     -0.30548302	      2.44679937	     -1.38290319	     -0.40629242	      2.59972433	     -1.22339759	     -0.74275142	      2.59972433	     -0.85106890	     -0.74275142	      2.14094945	     -0.69148883	     -0.62294098	      1.98802449	     -0.42549722	     -0.47319320	      1.83509953	     -5.31901309	     -3.45568506	     13.60836405	      0.00000000	      0.00000000	    -10.20223498	      1.56972358	      1.65562343	    117.71230862	    -22.59927319	     29.21922960	    113.52507760	     48.22851253	    -35.33418329	     33.82074922	    114.53353138	    -21.06272665	     34.25548787	    103.81242517	     82.38395160	      5.40624722	     34.23026993
      3.07692308	     -2.56820456	      5.52516001	     83.12977780	      0.00926066	      0.93760785	      0.57050381	     -7.02463045	     -2.23629941	      0.58300961	      5.43953773	      0.09493784	     31.03068972	      9.39083626	      0.00000000	     -9.33201933	      1.97811932	     -2.56673339	      1.37242670	      0.02395336	     26.14492717	     -4.87381098	      0.00000000	     -0.68071136	     -0.29567355	      2.39492683	     -1.26414907	     -0.39324583	      2.54460976	     -1.11834070	     -0.71890068	      2.54460976	     -0.77798501	     -0.71890068	      2.09556098	     -0.63210857	     -0.60293751	      1.94587805	     -0.38895847	     -0.45799833	      1.79619513	     -4.86225318	     -3.34471837	     13.31986457	      0.00000000	      0.00000000	    -10.10030698	      1.93854612	      2.65635961	    114.87589196	    -20.66105565	     26.60493349	    113.65615903	     50.68732995	    -33.10497259	     33.51192049	    111.86071328	    -20.97253168	     30.80726903	    106.08516266	     82.54367718	      4.72910852	     34.06435050
